<?xml version="1.0" encoding="utf-8"?>
<!-- Generator: Adobe Illustrator 26.0.3, SVG Export Plug-In . SVG Version: 6.00 Build 0)  -->
<svg version="1.1" id="图层_1" xmlns="http://www.w3.org/2000/svg" xmlns:xlink="http://www.w3.org/1999/xlink" x="0px" y="0px"
	 viewBox="0 0 92 23" style="enable-background:new 0 0 92 23;" xml:space="preserve">
<style type="text/css">
	.st0{fill:#525555;}
</style>
<g>
	<g>
		<path class="st0" d="M18,16.2c0.7-1.2,1.2-2.6,1.7-4.1c0.4-1.5,0.8-3.2,1-5.1h1.5V4.4h-5.9c0.3-1,0.6-2.1,0.8-3.2l-2.5-0.3
			c-0.2,1.3-0.6,2.8-1.1,4.3c-0.5,1.6-1.1,2.9-1.8,4.1V7.5h-1c0.8-1.1,1.5-2.4,2.3-4l-1.9-1c-0.4,0.9-0.9,1.8-1.5,2.8V3.4H6.9V1H4.6
			v2.4H1.8v2.1h2.8v1.9H1v2.2h5.1c-0.6,0.6-1.1,1.1-1.6,1.5H1.8v2.1h0.2c-0.6,0.4-1.1,0.8-1.4,1l1.2,2c1.5-1.1,2.7-2.1,3.6-3h2.3
			l-2,1.7v1.1l-4.8,0.6l0.2,2.3l4.6-0.6v0.9c0,0.4,0,0.6-0.1,0.7c-0.1,0.1-0.2,0.2-0.3,0.3c-0.2,0.1-0.5,0.1-0.9,0.1H2.5l0.5,2.3
			h2.4c0.7,0,1.3-0.1,1.7-0.2c0.4-0.1,0.7-0.4,0.8-0.7c0.2-0.4,0.2-0.9,0.2-1.5V18l3.9-0.5l0-1.1l0-1.2l-3.8,0.5v-0.2l3-2.4v-2.1
			H7.6c0.5-0.6,1-1.1,1.4-1.5h2.4c-0.1,0.2-0.2,0.4-0.3,0.6l1.2,2.7c0.3-0.4,0.6-0.9,1-1.6c0.4,1.8,1,3.5,1.8,5
			c-1.2,1.5-2.8,3-5,4.6l1.6,2.2c2-1.6,3.6-3.1,4.8-4.6c1.2,1.6,2.7,3.1,4.4,4.5l1.6-2.4C20.5,19.1,19.1,17.7,18,16.2z M8,7.5H6.9
			V5.5h2.4C8.9,6.1,8.5,6.8,8,7.5z M14.9,8.1c0.1-0.3,0.3-0.7,0.5-1.1h3c-0.4,2.8-1,5.1-1.8,6.9C15.8,12.2,15.3,10.3,14.9,8.1z
			 M26.2,22.7h2.6V19h11.1v0.4c0,0.4,0,0.6-0.1,0.8c-0.1,0.2-0.2,0.3-0.3,0.3c-0.2,0-0.5,0.1-0.9,0.1h-3.5l0.4,2.2h3.6
			c0.9,0,1.6-0.1,2.1-0.3c0.5-0.2,0.8-0.5,1-0.9c0.2-0.4,0.3-1,0.3-1.8v-9.4H26.2V22.7z M28.8,12.3h11.1v1.5H28.8V12.3z M28.8,15.6
			h11.1v1.5H28.8V15.6z M35.9,1.9c-0.4-0.9-0.6-1.4-0.6-1.6L32.4,1c0.1,0.3,0.2,0.5,0.2,0.6l0.5,1.2h-9.4V5h5.5
			c-1.2,0.8-2.5,1.5-4,2.1l0.4,2.3l15.1-0.5c0.5,0.4,1,0.8,1.3,1.1c0.1,0,0.2,0.1,0.2,0.2c0.1,0.1,0.1,0.1,0.2,0.2l1.5-2L39.6,5h5.3
			V2.7h-8.6L35.9,1.9z M38.3,7l-8.7,0.2C30.9,6.4,32.1,5.7,33,5h4.2l-0.6,0.7C37.5,6.4,38.1,6.8,38.3,7z M52.2,3.2
			c-0.6-0.4-1.8-1.2-3.7-2.4l-1.2,1.9c1.8,1.2,3,2.1,3.6,2.5L52.2,3.2z M60.6,6.1c0.1-0.2,0.1-0.4,0.1-0.5c0,0,0.1-0.4,0.1-1h3.6
			L63,6.3l2.3,0.8L67,4.6V2.4h-9.5c0.3-0.6,0.5-1.1,0.7-1.6l-2.4-0.3c-0.9,2.2-2.1,4-3.6,5.4l1.9,1.5c0.8-0.8,1.5-1.7,2.1-2.7h2
			c-0.1,0.5-0.1,0.8-0.2,1c-0.2,0.8-0.8,1.4-1.7,2c-1,0.6-2.5,1.1-4.5,1.6l1,2.1c1.6-0.4,2.9-0.8,4-1.4c1.1-0.5,1.9-1.1,2.6-1.8
			c0.7,0.7,1.6,1.3,2.8,1.8c1.2,0.5,2.7,1,4.6,1.5l1.1-2.3c-1.9-0.4-3.5-0.8-4.6-1.2C62.1,7.5,61.2,6.9,60.6,6.1z M58.5,16.1
			l0.1-1.5h-2.7l-0.1,0.7l-0.1,0.7c-0.1,0.7-0.3,1.2-0.9,1.7c-0.5,0.5-1.4,1-2.7,1.4c-1.3,0.4-3.1,0.9-5.5,1.3l1.2,2.4
			c2.4-0.5,4.4-1.1,5.8-1.6c1.4-0.6,2.5-1.2,3.3-1.9c4.7,1.8,7.8,3,9.3,3.7l1.1-2.3c-2.2-0.8-5.2-1.9-9.1-3.3
			C58.4,17.1,58.5,16.7,58.5,16.1z M65,18.3v-6.6H49.3v6.6h2.5V14h10.6v4.3H65z M49.5,10.2c1.9-1.5,2.9-2.3,3.2-2.6l-0.8-0.9
			l-0.7-0.8c-0.4,0.3-1.2,1-2.4,2c-1.3,1-2.1,1.6-2.5,1.9l1.3,2L49.5,10.2z M75.1,5.3c-0.6-0.8-1.5-2-2.8-3.6l-0.4-0.6l-2,1.5
			c1,1.3,2.1,2.7,3.2,4.2L75.1,5.3z M89.1,15.4c0,0.7-0.1,1.5-0.2,2.4c-0.1,0.5-0.2,0.9-0.3,1.1c-0.1,0.2-0.2,0.3-0.3,0.3
			c-0.3,0-0.5-0.7-0.6-2.1c-0.1-0.8-0.1-2.6-0.1-5.3V2H75.7v2.5h2.7v5.8h-3.3V13h3.3v9.7H81V13h3.1v-2.6H81V4.6h4v7.5
			c0,2.3,0.1,4,0.2,5.3c0.1,1.3,0.3,2.3,0.6,3c0.3,0.7,0.6,1.2,1,1.5c0.4,0.4,0.9,0.5,1.4,0.5c0.6,0,1-0.2,1.4-0.7
			c0.4-0.5,0.7-1.1,0.9-2.1c0.2-0.9,0.4-2.2,0.5-3.6L89.1,15.4z M73.7,18.1V8.3h-4.6v2.5h2v7.9c0,0.3,0,0.5-0.1,0.7
			c-0.1,0.2-0.3,0.4-0.5,0.7l1.4,2.1l4.7-3.3L76,16.4L73.7,18.1z"/>
	</g>
</g>
</svg>
